<?xml version="1.0" encoding="utf-8"?>
<svg viewBox="0 0 500 500" xmlns="http://www.w3.org/2000/svg">
  <g id="Layer_2" data-name="Layer 2" transform="matrix(1, 0, 0, 1, 112.425026, 190.541275)">
    <g id="Layer_1-2" data-name="Layer 1">
      <path class="cls-1" d="M 250.72 -140.092 C 218.88 -166.239 178.95 -180.532 137.749 -180.53 C 96.493 -180.61 56.501 -166.311 24.648 -140.092 C -73.885 -59.394 -58.348 95.636 54.24 155.176 C 54.883 157.229 55.523 159.283 56.293 161.593 C 59.108 169.387 62.951 176.769 67.719 183.545 C 71.343 188.654 76.707 192.26 82.804 193.688 C 96.828 197.107 110.961 188.472 114.319 174.432 C 116.126 166.347 116.881 158.062 116.567 149.784 C 116.362 141.831 115.503 133.91 113.999 126.097 C 112.205 115.418 105.197 106.339 95.32 101.899 L 94.293 101.899 C 70.621 91.557 51.189 73.441 39.22 50.548 C 1.076 -26.615 60.768 -116.134 146.665 -110.585 C 195.842 -107.408 237.141 -72.412 248.346 -24.423 C 253.915 1.027 250.536 27.618 238.781 50.868 C 226.833 74.27 207.402 93 183.578 104.08 L 183.131 104.08 L 180.242 105.493 C 179.279 106.006 178.379 106.584 177.481 107.161 L 175.428 108.767 C 174.548 109.487 173.712 110.26 172.925 111.077 C 170.698 113.297 168.836 115.852 167.403 118.652 L 166.505 120.32 L 166.055 121.413 L 164.9 123.724 C 164.396 124.979 163.967 126.266 163.617 127.575 C 162.719 131.212 162.033 134.899 161.564 138.614 C 160.986 145.033 160.729 150.425 160.536 155.817 L 160.086 186.499 C 160.086 196.449 159.766 206.333 159.638 216.153 C 159.346 226.419 156.873 236.506 152.383 245.745 C 138.664 272.528 159.082 304.119 189.137 302.609 C 218.791 301.118 236.024 268.415 220.487 243.114 C 215.323 234.7 212.264 225.167 211.565 215.32 C 211.052 205.947 210.667 196.642 210.987 187.461 C 211.11 178.534 211.904 169.631 213.363 160.823 C 213.683 158.897 214.068 157.102 214.453 155.369 C 248.435 139.499 276.393 113.094 294.176 80.075 C 334.315 5.755 316.089 -86.594 250.72 -140.092 Z" style="fill: rgb(4, 4, 90);"/>
      <path class="cls-1" d="M 183.451 43.616 L 138.134 -1.701 L 92.752 -47.083 L 89.094 -50.741 C 52.176 -12.205 70.817 51.842 122.649 64.547 C 145.676 70.192 169.991 63.677 187.109 47.275 L 183.451 43.616 Z" style="fill: rgb(4, 4, 90);"/>
    </g>
  </g>
</svg>